<svg version="1.0" xmlns="http://www.w3.org/2000/svg"
 width="584.000000pt" height="242.000000pt" viewBox="0 0 584.000000 242.000000"
 preserveAspectRatio="xMidYMid meet">

<g transform="translate(0.000000,242.000000) scale(0.100000,-0.100000)"
fill="#000000" stroke="none">
<path d="M450 2243 c-161 -44 -250 -146 -250 -286 0 -72 18 -122 62 -172 52
-58 108 -83 332 -146 253 -70 313 -111 324 -218 8 -82 -4 -118 -57 -171 -67
-67 -124 -85 -271 -85 -154 0 -255 30 -352 107 l-37 29 -16 -25 c-21 -31 -18
-35 50 -80 81 -55 172 -85 288 -97 214 -22 379 43 447 177 20 40 25 63 24 124
0 85 -14 119 -69 175 -52 51 -90 67 -305 130 -207 60 -230 69 -279 111 -45 38
-62 77 -62 144 -1 78 29 134 95 177 65 44 114 56 221 56 104 0 196 -21 272
-62 l53 -29 15 28 c14 28 14 29 -28 53 -118 69 -323 96 -457 60z"/>
<path d="M1300 2220 l0 -30 208 0 c114 0 240 -5 281 -10 187 -24 289 -123 299
-290 8 -140 -40 -232 -149 -288 -90 -45 -141 -52 -405 -52 l-234 0 0 -225 0
-225 35 0 35 0 0 189 0 189 233 4 c199 4 241 8 294 25 125 41 193 99 242 203
22 48 26 68 26 155 0 89 -4 107 -29 162 -31 69 -98 138 -164 172 -83 42 -152
51 -419 51 l-253 0 0 -30z"/>
<path d="M2485 1693 c-142 -307 -260 -566 -262 -575 -4 -15 1 -18 34 -18 l38
0 239 528 c131 290 241 530 245 534 3 4 115 -232 248 -525 l242 -532 41 -3
c25 -2 41 1 39 7 -2 5 -121 264 -264 575 l-260 566 -41 0 -42 0 -257 -557z"/>
<path d="M3570 2220 l0 -30 213 0 c266 -1 342 -10 427 -52 112 -56 167 -161
158 -297 -9 -125 -75 -218 -184 -262 -56 -22 -73 -24 -336 -27 l-278 -3 0
-225 0 -224 40 0 40 0 0 190 0 190 210 2 c116 1 217 2 227 2 10 1 64 -65 145
-179 71 -99 133 -186 137 -193 5 -9 22 -12 49 -10 l42 3 -140 195 c-76 107
-140 198 -140 201 0 3 26 16 58 29 232 96 285 442 92 612 -106 93 -172 108
-507 108 l-253 0 0 -30z"/>
<path d="M4770 1675 l0 -575 35 0 35 0 0 152 0 151 132 134 c73 73 135 133
138 133 3 0 117 -128 253 -285 l248 -285 46 0 47 0 -25 28 c-76 82 -520 604
-517 607 4 5 258 265 398 408 l105 107 -46 0 -47 0 -357 -367 c-197 -203 -361
-369 -366 -371 -5 -2 -9 160 -9 367 l0 371 -35 0 -35 0 0 -575z"/>
<path d="M700 605 c0 -256 2 -295 15 -295 13 0 15 39 15 295 0 256 -2 295 -15
295 -13 0 -15 -39 -15 -295z"/>
<path d="M3514 875 c-7 -17 2 -45 14 -45 4 0 17 6 27 14 16 12 17 16 6 30 -17
20 -40 21 -47 1z"/>
<path d="M170 855 c0 -13 26 -15 181 -15 140 0 180 3 177 13 -4 9 -51 13 -181
15 -153 2 -177 0 -177 -13z"/>
<path d="M4922 851 c-114 -39 -182 -139 -182 -267 0 -117 60 -209 168 -257 64
-28 173 -28 232 1 62 29 86 50 74 62 -7 7 -21 2 -43 -15 -47 -34 -128 -49
-192 -36 -66 14 -85 25 -136 74 -97 93 -95 265 4 359 77 73 198 89 298 39 33
-17 63 -27 68 -24 16 10 -25 42 -80 63 -66 25 -141 25 -211 1z"/>
<path d="M1850 765 c0 -45 0 -45 -35 -45 -19 0 -35 -4 -35 -10 0 -5 16 -10 35
-10 l35 0 0 -150 c0 -204 17 -241 109 -242 51 0 81 10 81 29 0 10 -5 13 -17 8
-48 -19 -80 -17 -106 6 l-27 24 -1 160 -1 160 66 3 c86 4 85 20 -1 24 l-68 3
3 43 c3 37 1 42 -17 42 -18 0 -21 -6 -21 -45z"/>
<path d="M1055 724 c-6 -1 -27 -5 -48 -9 -41 -7 -100 -52 -122 -94 -34 -67
-27 -173 17 -233 56 -80 194 -106 284 -53 24 14 44 29 44 34 0 20 -15 18 -51
-6 -57 -37 -150 -38 -206 -1 -33 22 -83 93 -71 102 1 2 77 17 168 35 91 18
170 34 177 36 10 3 9 15 -2 51 -14 47 -52 96 -90 117 -22 11 -85 25 -100 21z
m68 -38 c43 -18 85 -65 93 -102 l6 -31 -159 -31 c-87 -18 -161 -32 -165 -32
-11 0 -10 38 2 82 28 100 132 153 223 114z"/>
<path d="M1513 720 c-97 -14 -163 -96 -163 -203 0 -127 80 -208 205 -208 59 0
111 18 138 49 23 25 4 41 -21 18 -76 -68 -201 -50 -266 37 -30 41 -30 163 0
203 63 86 179 105 258 43 32 -25 55 -16 29 13 -10 11 -26 24 -35 29 -30 16
-101 25 -145 19z"/>
<path d="M2625 724 c-6 -1 -27 -5 -48 -9 -21 -3 -53 -20 -74 -38 -97 -85 -97
-239 1 -325 20 -17 40 -32 44 -32 4 -1 27 -5 51 -9 128 -25 241 71 241 205 0
68 -34 138 -83 171 -30 21 -109 43 -132 37z m95 -49 c34 -17 56 -44 75 -88 58
-139 -68 -289 -208 -247 -168 50 -164 310 6 350 37 9 92 3 127 -15z"/>
<path d="M3140 721 c-47 -9 -93 -38 -113 -70 l-16 -26 -1 48 c0 35 -4 47 -15
47 -13 0 -15 -29 -15 -205 0 -176 2 -205 15 -205 13 0 15 21 15 129 0 71 5
142 11 158 40 107 205 134 266 44 21 -32 23 -45 23 -182 0 -145 1 -149 21
-149 21 0 21 2 17 148 -3 94 -9 156 -17 172 -23 43 -63 79 -95 85 -17 4 -38 8
-46 9 -8 2 -31 0 -50 -3z"/>
<path d="M3851 718 c-162 -28 -218 -243 -94 -360 37 -35 77 -49 139 -49 58 0
110 18 137 49 25 28 2 40 -26 14 -52 -46 -147 -50 -210 -8 -41 27 -77 98 -77
151 0 49 35 121 71 148 60 43 155 42 213 -4 32 -25 55 -16 29 13 -36 40 -109
59 -182 46z"/>
<path d="M4241 719 c-64 -12 -101 -51 -101 -106 0 -62 29 -86 136 -112 110
-25 134 -41 134 -86 0 -44 -29 -71 -85 -80 -53 -7 -108 1 -157 26 -31 16 -37
17 -42 3 -4 -10 7 -20 37 -33 120 -51 246 -25 278 58 26 67 -19 110 -145 137
-43 10 -89 26 -102 36 -33 27 -33 76 2 109 22 21 35 24 92 24 43 -1 78 -7 99
-18 26 -14 32 -14 36 -2 11 28 -109 57 -182 44z"/>
<path d="M5459 720 c-137 -25 -207 -178 -140 -308 35 -69 96 -104 181 -104 63
0 101 15 144 58 45 46 59 83 59 152 0 51 -6 71 -30 110 -45 73 -127 108 -214
92z m86 -31 c168 -46 168 -302 0 -349 -116 -33 -215 48 -215 176 0 90 47 156
125 175 43 10 46 10 90 -2z"/>
<path d="M2170 515 c0 -176 2 -205 15 -205 13 0 15 21 15 132 0 111 3 138 20
173 21 44 69 75 115 75 16 0 25 6 25 15 0 35 -87 11 -131 -36 l-29 -31 0 41
c0 30 -4 41 -15 41 -13 0 -15 -29 -15 -205z"/>
<path d="M3520 515 c0 -176 2 -205 15 -205 13 0 15 29 15 205 0 176 -2 205
-15 205 -13 0 -15 -29 -15 -205z"/>
<path d="M170 595 c0 -13 26 -15 181 -15 140 0 180 3 177 13 -4 9 -51 13 -181
15 -153 2 -177 0 -177 -13z"/>
<path d="M170 325 c0 -13 27 -15 180 -15 153 0 180 2 180 15 0 13 -27 15 -180
15 -153 0 -180 -2 -180 -15z"/>
</g>
</svg>